<svg xmlns="http://www.w3.org/2000/svg" width="124.258" height="14" viewBox="0 0 124.258 14">
    <defs>
        <clipPath id="6dsvjxbqza">
            <path data-name="사각형 13" style="fill:#fff" d="M0 0h124.258v14H0z"/>
        </clipPath>
    </defs>
    <g data-name="그룹 1" style="clip-path:url(#6dsvjxbqza)">
        <path data-name="패스 1" d="M14.381 3.3h-3.307L9.547 4.828A2.586 2.586 0 0 0 7.183 3.3H3.892L2.583 4.593V3.3H0v11.417h2.583V5.909H6.67a.494.494 0 0 1 .513.5v8.3h2.6v-8.8h4.07a.507.507 0 0 1 .528.5v8.3h2.584v-8.8A2.585 2.585 0 0 0 14.381 3.3" transform="translate(0 -.717)" style="fill:#fff"/>
        <path data-name="패스 2" d="M33.227 3.3h-5.192a2.585 2.585 0 0 0-2.584 2.608v6.224a2.58 2.58 0 0 0 2.584 2.583h5.192a2.583 2.583 0 0 0 2.6-2.583V5.909a2.589 2.589 0 0 0-2.6-2.608m0 8.3a.513.513 0 0 1-.512.528h-4.152a.527.527 0 0 1-.528-.528V6.413a.507.507 0 0 1 .528-.5h4.152a.493.493 0 0 1 .512.5z" transform="translate(-5.528 -.717)" style="fill:#fff"/>
        <path data-name="패스 3" d="m49.52 3.3-2.486 8.734L44.548 3.3h-2.893l3.421 11.416h3.916L52.421 3.3z" transform="translate(-9.048 -.717)" style="fill:#fff"/>
        <path data-name="패스 4" d="m63.015 7.7-.788 2.608h6.484v-4.4A2.591 2.591 0 0 0 66.1 3.3h-5.181a2.585 2.585 0 0 0-2.584 2.608v6.224a2.58 2.58 0 0 0 2.584 2.584h6.5l.764-2.584h-6.736a.527.527 0 0 1-.528-.528V6.413a.507.507 0 0 1 .528-.5H65.6a.486.486 0 0 1 .5.5V7.7z" transform="translate(-12.672 -.717)" style="fill:#fff"/>
        <path data-name="패스 5" d="M89.7 3.3h-3.319l-1.527 1.528A2.587 2.587 0 0 0 82.489 3.3H79.2l-1.31 1.293V3.3h-2.584v11.417h2.584V5.909h4.087a.493.493 0 0 1 .512.5v8.3h2.6v-8.8h4.07a.509.509 0 0 1 .536.5v8.3h2.585v-8.8A2.591 2.591 0 0 0 89.7 3.3" transform="translate(-16.358 -.717)" style="fill:#fff"/>
        <path data-name="패스 6" d="m105.438 7.7-.78 2.608h6.475v-4.4a2.589 2.589 0 0 0-2.6-2.608h-5.192a2.585 2.585 0 0 0-2.584 2.608v6.224a2.58 2.58 0 0 0 2.584 2.584h6.5l.764-2.584h-6.735a.527.527 0 0 1-.528-.528V6.413a.507.507 0 0 1 .528-.5h4.152a.494.494 0 0 1 .512.5V7.7z" transform="translate(-21.887 -.717)" style="fill:#fff"/>
        <path data-name="패스 7" d="M124.912 3.3h-3.282l-1.317 1.292V3.3h-2.584v11.417h2.584V5.909h4.095a.487.487 0 0 1 .5.5v8.3h2.608v-8.8a2.591 2.591 0 0 0-2.604-2.609" transform="translate(-25.573 -.717)" style="fill:#fff"/>
        <path data-name="패스 8" d="M136.568 10.888v-5.7h2.877l.787-2.608h-3.664V0h-2.584v11.416A2.58 2.58 0 0 0 136.568 14h3.664v-2.584H137.1a.527.527 0 0 1-.528-.528" transform="translate(-29.104)" style="fill:#fff"/>
        <path data-name="패스 9" d="M153.261 7.7H148.6a.523.523 0 0 1-.528-.5v-.787a.507.507 0 0 1 .528-.5h5.695l.785-2.613h-7.011a2.586 2.586 0 0 0-2.585 2.608V7.7a2.6 2.6 0 0 0 2.585 2.608h4.679a.508.508 0 0 1 .513.5v.792a.514.514 0 0 1-.513.528h-6.483l-.781 2.584h7.777a2.584 2.584 0 0 0 2.6-2.584v-1.82a2.6 2.6 0 0 0-2.6-2.608" transform="translate(-31.602 -.717)" style="fill:#fff"/>
    </g>
</svg>
